<mxfile host="app.diagrams.net" agent="Mozilla/5.0 (Windows NT 10.0; Win64; x64) AppleWebKit/537.36 (KHTML, like Gecko) Chrome/129.0.0.0 Safari/537.36" version="24.7.17">
  <diagram name="UC_GR_3-30-300" id="Krvi3zgOJTbH_F1lKnKt">
    <mxGraphModel grid="1" page="1" gridSize="10" guides="1" tooltips="1" connect="1" arrows="1" fold="1" pageScale="1" pageWidth="3300" pageHeight="4681" math="0" shadow="0">
      <root>
        <mxCell id="k6mhYjpQpfvVJ8LvTSOb-0" />
        <mxCell id="k6mhYjpQpfvVJ8LvTSOb-1" parent="k6mhYjpQpfvVJ8LvTSOb-0" />
        <UserObject label="&lt;font color=&quot;#ff0000&quot;&gt;&lt;a href=&quot;https://docs.google.com/document/d/1ABKdiM5d2JuX-enuPZMrgIqE85hdRemT/edit&quot;&gt;UC_GR_3-30-300&lt;/a&gt;&lt;/font&gt;" link="https://docs.google.com/document/d/1ABKdiM5d2JuX-enuPZMrgIqE85hdRemT/edit" linkTarget="_blank" id="k6mhYjpQpfvVJ8LvTSOb-5">
          <mxCell style="swimlane;html=1;childLayout=stackLayout;resizeParent=1;resizeParentMax=0;horizontal=0;startSize=20;horizontalStack=0;whiteSpace=wrap;" vertex="1" parent="k6mhYjpQpfvVJ8LvTSOb-1">
            <mxGeometry x="490" y="-4160" width="1920" height="2050" as="geometry">
              <mxRectangle x="99" y="-2240" width="40" height="50" as="alternateBounds" />
            </mxGeometry>
          </mxCell>
        </UserObject>
        <mxCell id="k6mhYjpQpfvVJ8LvTSOb-6" value="&lt;div&gt;3 Trees&lt;/div&gt;" style="swimlane;html=1;startSize=58;horizontal=0;" vertex="1" parent="k6mhYjpQpfvVJ8LvTSOb-5">
          <mxGeometry x="20" width="1900" height="600" as="geometry">
            <mxRectangle x="20" width="1133" height="30" as="alternateBounds" />
          </mxGeometry>
        </mxCell>
        <mxCell id="k6mhYjpQpfvVJ8LvTSOb-8" value="" style="points=[[0.145,0.145,0],[0.5,0,0],[0.855,0.145,0],[1,0.5,0],[0.855,0.855,0],[0.5,1,0],[0.145,0.855,0],[0,0.5,0]];shape=mxgraph.bpmn.event;html=1;verticalLabelPosition=bottom;labelBackgroundColor=#ffffff;verticalAlign=top;align=center;perimeter=ellipsePerimeter;outlineConnect=0;aspect=fixed;outline=standard;symbol=general;" vertex="1" parent="k6mhYjpQpfvVJ8LvTSOb-6">
          <mxGeometry x="110" y="33" width="34" height="34" as="geometry" />
        </mxCell>
        <mxCell id="k6mhYjpQpfvVJ8LvTSOb-15" style="edgeStyle=orthogonalEdgeStyle;rounded=0;orthogonalLoop=1;jettySize=auto;html=1;dashed=1;exitX=0;exitY=0;exitDx=30.000000000000004;exitDy=23.5;exitPerimeter=0;entryX=0;entryY=0.5;entryDx=0;entryDy=0;entryPerimeter=0;" edge="1" parent="k6mhYjpQpfvVJ8LvTSOb-6" source="ciWnwU-5eP2VFK62MYWq-23" target="k6mhYjpQpfvVJ8LvTSOb-14">
          <mxGeometry relative="1" as="geometry">
            <mxPoint x="580" y="320" as="sourcePoint" />
            <mxPoint x="570" y="380.75" as="targetPoint" />
          </mxGeometry>
        </mxCell>
        <UserObject label="&lt;div style=&quot;&quot;&gt;&lt;div style=&quot;&quot;&gt;&lt;font face=&quot;Arial&quot;&gt;&lt;span style=&quot;font-size: 8px;&quot;&gt;Tree positions&lt;/span&gt;&lt;/font&gt;&lt;/div&gt;&lt;div style=&quot;font-size: 8px;&quot;&gt;&lt;font style=&quot;font-size: 8px;&quot; face=&quot;Arial&quot;&gt;&amp;nbsp;&lt;a href=&quot;https://usage.geocat.live/catalogue/srv/eng/catalog.search#/metadata/9a4b1116-7c73-43df-8176-d8864c7b51b8&quot;&gt;link to dataset metadata&lt;/a&gt;&lt;/font&gt;&lt;/div&gt;&lt;/div&gt;" id="k6mhYjpQpfvVJ8LvTSOb-16">
          <mxCell style="shape=mxgraph.bpmn.data;labelPosition=center;verticalLabelPosition=bottom;align=center;verticalAlign=top;size=10;html=1;" vertex="1" parent="k6mhYjpQpfvVJ8LvTSOb-6">
            <mxGeometry x="860" y="220" width="30" height="37" as="geometry" />
          </mxCell>
        </UserObject>
        <UserObject label="&lt;div style=&quot;line-height: 100%;&quot;&gt;&lt;p style=&quot;line-height: 100%;&quot;&gt;&lt;span style=&quot;background-color: initial; font-family: Arial; font-size: 8px;&quot;&gt;Boolean buildings - 3 trees criterion&lt;br&gt;&lt;/span&gt;&lt;a style=&quot;background-color: initial; font-size: 8px; font-family: Arial;&quot; href=&quot;https://usage.geocat.live/catalogue/srv/eng/catalog.search#/metadata/f1ca52d3-faba-4291-afe4-53f3cd42845b&quot;&gt;link to dataset metadata&lt;/a&gt;&lt;/p&gt;&lt;/div&gt;" id="k6mhYjpQpfvVJ8LvTSOb-17">
          <mxCell style="shape=mxgraph.bpmn.data;labelPosition=center;verticalLabelPosition=bottom;align=center;verticalAlign=top;size=14;html=1;" vertex="1" parent="k6mhYjpQpfvVJ8LvTSOb-6">
            <mxGeometry x="706.75" y="508" width="26.5" height="32" as="geometry" />
          </mxCell>
        </UserObject>
        <mxCell id="k6mhYjpQpfvVJ8LvTSOb-18" style="edgeStyle=orthogonalEdgeStyle;rounded=0;orthogonalLoop=1;jettySize=auto;html=1;dashed=1;exitX=0.5;exitY=1;exitDx=0;exitDy=0;exitPerimeter=0;" edge="1" parent="k6mhYjpQpfvVJ8LvTSOb-6" source="k6mhYjpQpfvVJ8LvTSOb-14">
          <mxGeometry relative="1" as="geometry">
            <Array as="points">
              <mxPoint x="720" y="508" />
            </Array>
            <mxPoint x="720" y="508" as="targetPoint" />
          </mxGeometry>
        </mxCell>
        <UserObject label="&lt;div style=&quot;&quot;&gt;&lt;div style=&quot;&quot;&gt;&lt;font face=&quot;Arial&quot;&gt;&lt;span style=&quot;font-size: 8px;&quot;&gt;building footprints with height&lt;/span&gt;&lt;/font&gt;&lt;/div&gt;&lt;div style=&quot;font-size: 8px;&quot;&gt;&lt;font style=&quot;font-size: 8px;&quot; face=&quot;Arial&quot;&gt;&amp;nbsp;&lt;a href=&quot;https://usage.geocat.live/catalogue/srv/eng/catalog.search#/metadata/3f8220eb-fe9e-4dd4-85bb-e04faf7fa3e2&quot;&gt;link to dataset metadata&lt;/a&gt;&lt;/font&gt;&lt;/div&gt;&lt;/div&gt;" id="ciWnwU-5eP2VFK62MYWq-23">
          <mxCell style="shape=mxgraph.bpmn.data;labelPosition=center;verticalLabelPosition=bottom;align=center;verticalAlign=top;size=10;html=1;" vertex="1" parent="k6mhYjpQpfvVJ8LvTSOb-6">
            <mxGeometry x="380" y="382" width="30" height="37" as="geometry" />
          </mxCell>
        </UserObject>
        <mxCell id="k6mhYjpQpfvVJ8LvTSOb-14" value="&lt;h6 style=&quot;line-height: 100%;&quot;&gt;&lt;font face=&quot;Arial&quot;&gt;&lt;span style=&quot;font-size: 8px;&quot;&gt;&lt;span style=&quot;font-weight: 400;&quot;&gt;calculate the amount of trees visible from each building (H: 3 m). Test: is the amount &amp;gt;3 or not? 0: no, 1: yes&lt;br&gt;&lt;/span&gt;&lt;/span&gt;&lt;/font&gt;&lt;a href=&quot;https://usage.geocat.live/catalogue/srv/eng/catalog.search#/metadata/e13cccc3-d6e3-49af-ac51-13dfee61eb17&quot;&gt;3tree criterion&lt;/a&gt;&lt;/h6&gt;" style="points=[[0.25,0,0],[0.5,0,0],[0.75,0,0],[1,0.25,0],[1,0.5,0],[1,0.75,0],[0.75,1,0],[0.5,1,0],[0.25,1,0],[0,0.75,0],[0,0.5,0],[0,0.25,0]];shape=mxgraph.bpmn.task;whiteSpace=wrap;rectStyle=rounded;size=10;html=1;container=1;expand=0;collapsible=0;taskMarker=abstract;fillColor=#ff9b29;fontColor=#000000;strokeColor=#BD7000;" vertex="1" parent="k6mhYjpQpfvVJ8LvTSOb-6">
          <mxGeometry x="620" y="380" width="200" height="52" as="geometry" />
        </mxCell>
        <mxCell id="ciWnwU-5eP2VFK62MYWq-24" style="edgeStyle=orthogonalEdgeStyle;rounded=0;orthogonalLoop=1;jettySize=auto;html=1;dashed=1;exitX=0.5;exitY=1;exitDx=0;exitDy=0;exitPerimeter=0;" edge="1" parent="k6mhYjpQpfvVJ8LvTSOb-6" source="k6mhYjpQpfvVJ8LvTSOb-16">
          <mxGeometry relative="1" as="geometry">
            <mxPoint x="790" y="380" as="targetPoint" />
            <mxPoint x="790" y="330" as="sourcePoint" />
            <Array as="points">
              <mxPoint x="875" y="320" />
              <mxPoint x="790" y="320" />
            </Array>
          </mxGeometry>
        </mxCell>
        <mxCell id="ciWnwU-5eP2VFK62MYWq-32" value="&lt;h6 style=&quot;line-height: 100%;&quot;&gt;&lt;span style=&quot;font-weight: normal;&quot;&gt;extraction single tree from Lidar data&lt;/span&gt;&lt;br&gt;&lt;span style=&quot;font-weight: normal;&quot;&gt;&lt;a href=&quot;https://usage.geocat.live/catalogue/srv/eng/catalog.search#/metadata/48e58f2f-286f-4c92-b989-cb9bd8d22c1b&quot;&gt;Single Tree Segmentation Tool&lt;/a&gt;&lt;/span&gt;&lt;/h6&gt;" style="points=[[0.25,0,0],[0.5,0,0],[0.75,0,0],[1,0.25,0],[1,0.5,0],[1,0.75,0],[0.75,1,0],[0.5,1,0],[0.25,1,0],[0,0.75,0],[0,0.5,0],[0,0.25,0]];shape=mxgraph.bpmn.task;whiteSpace=wrap;rectStyle=rounded;size=10;html=1;container=1;expand=0;collapsible=0;taskMarker=abstract;fillColor=#ff9b29;fontColor=#000000;strokeColor=#BD7000;" vertex="1" parent="k6mhYjpQpfvVJ8LvTSOb-6">
          <mxGeometry x="500" y="150" width="200" height="50" as="geometry" />
        </mxCell>
        <UserObject label="&lt;div style=&quot;&quot;&gt;&lt;div style=&quot;&quot;&gt;&lt;font face=&quot;Arial&quot;&gt;&lt;span style=&quot;font-size: 8px;&quot;&gt;3D point cloud&lt;/span&gt;&lt;/font&gt;&lt;/div&gt;&lt;div style=&quot;font-size: 8px;&quot;&gt;&lt;font style=&quot;font-size: 8px;&quot; face=&quot;Arial&quot;&gt;&amp;nbsp;&lt;a href=&quot;https://usage.geocat.live/catalogue/srv/eng/catalog.search#/metadata/e8aadb78-8eeb-4ac1-89b5-669cefb967ec&quot;&gt;link to dataset metadata&lt;/a&gt;&lt;/font&gt;&lt;/div&gt;&lt;/div&gt;" id="ciWnwU-5eP2VFK62MYWq-33">
          <mxCell style="shape=mxgraph.bpmn.data;labelPosition=center;verticalLabelPosition=bottom;align=center;verticalAlign=top;size=10;html=1;" vertex="1" parent="k6mhYjpQpfvVJ8LvTSOb-6">
            <mxGeometry x="585" y="30" width="30" height="37" as="geometry" />
          </mxCell>
        </UserObject>
        <UserObject label="&lt;div style=&quot;&quot;&gt;&lt;div style=&quot;&quot;&gt;&lt;font face=&quot;Arial&quot;&gt;&lt;span style=&quot;font-size: 8px;&quot;&gt;Digital Surface Model&lt;/span&gt;&lt;/font&gt;&lt;/div&gt;&lt;div style=&quot;font-size: 8px;&quot;&gt;&lt;font style=&quot;font-size: 8px;&quot; face=&quot;Arial&quot;&gt;&amp;nbsp;&lt;a href=&quot;https://usage.geocat.live/catalogue/srv/eng/catalog.search#/metadata/0b1ab809-4bf9-4030-ae20-85a8b5cd9ab6&quot;&gt;link to dataset metadata&lt;/a&gt;&lt;/font&gt;&lt;/div&gt;&lt;/div&gt;" id="mnoR7cyunpkpfNXAe4Dq-6">
          <mxCell style="shape=mxgraph.bpmn.data;labelPosition=center;verticalLabelPosition=bottom;align=center;verticalAlign=top;size=10;html=1;" vertex="1" parent="k6mhYjpQpfvVJ8LvTSOb-6">
            <mxGeometry x="720" y="220" width="30" height="37" as="geometry" />
          </mxCell>
        </UserObject>
        <mxCell id="EDfzUC_PJEwEIxlfBZfZ-0" style="edgeStyle=orthogonalEdgeStyle;rounded=0;orthogonalLoop=1;jettySize=auto;html=1;dashed=1;exitX=0.5;exitY=1;exitDx=0;exitDy=0;exitPerimeter=0;" edge="1" parent="k6mhYjpQpfvVJ8LvTSOb-6" source="mnoR7cyunpkpfNXAe4Dq-6">
          <mxGeometry relative="1" as="geometry">
            <mxPoint x="735" y="380" as="targetPoint" />
            <mxPoint x="755" y="276" as="sourcePoint" />
            <Array as="points">
              <mxPoint x="735" y="350" />
              <mxPoint x="735" y="350" />
            </Array>
          </mxGeometry>
        </mxCell>
        <mxCell id="EDfzUC_PJEwEIxlfBZfZ-4" style="edgeStyle=orthogonalEdgeStyle;rounded=0;orthogonalLoop=1;jettySize=auto;html=1;dashed=1;exitX=0.5;exitY=1;exitDx=0;exitDy=0;exitPerimeter=0;entryX=0.5;entryY=0;entryDx=0;entryDy=0;entryPerimeter=0;" edge="1" parent="k6mhYjpQpfvVJ8LvTSOb-6" source="ciWnwU-5eP2VFK62MYWq-33" target="ciWnwU-5eP2VFK62MYWq-32">
          <mxGeometry relative="1" as="geometry">
            <mxPoint x="555" y="267" as="sourcePoint" />
            <mxPoint x="645" y="360" as="targetPoint" />
          </mxGeometry>
        </mxCell>
        <mxCell id="EDfzUC_PJEwEIxlfBZfZ-5" style="edgeStyle=orthogonalEdgeStyle;rounded=0;orthogonalLoop=1;jettySize=auto;html=1;dashed=1;entryX=0;entryY=0;entryDx=10;entryDy=0;entryPerimeter=0;" edge="1" parent="k6mhYjpQpfvVJ8LvTSOb-6" target="k6mhYjpQpfvVJ8LvTSOb-16">
          <mxGeometry relative="1" as="geometry">
            <mxPoint x="768" y="318" as="targetPoint" />
            <mxPoint x="700" y="179" as="sourcePoint" />
            <Array as="points">
              <mxPoint x="870" y="179" />
            </Array>
          </mxGeometry>
        </mxCell>
        <mxCell id="EDfzUC_PJEwEIxlfBZfZ-27" style="edgeStyle=orthogonalEdgeStyle;rounded=0;orthogonalLoop=1;jettySize=auto;html=1;exitX=1;exitY=0.5;exitDx=0;exitDy=0;exitPerimeter=0;entryX=0;entryY=0.5;entryDx=0;entryDy=0;entryPerimeter=0;" edge="1" parent="k6mhYjpQpfvVJ8LvTSOb-6" source="2BGtZ8wRhE-_zH-Sex3D-0" target="ciWnwU-5eP2VFK62MYWq-32">
          <mxGeometry relative="1" as="geometry">
            <mxPoint x="490" y="170" as="targetPoint" />
            <Array as="points">
              <mxPoint x="250" y="175" />
            </Array>
          </mxGeometry>
        </mxCell>
        <UserObject label="&lt;div style=&quot;&quot;&gt;&lt;div style=&quot;&quot;&gt;&lt;font face=&quot;Arial&quot;&gt;&lt;span style=&quot;font-size: 8px;&quot;&gt;Digital Terrain Model&lt;/span&gt;&lt;/font&gt;&lt;/div&gt;&lt;div style=&quot;font-size: 8px;&quot;&gt;&lt;font face=&quot;Arial&quot; style=&quot;font-size: 8px;&quot;&gt;&amp;nbsp;&lt;a href=&quot;https://usage.geocat.live/catalogue/srv/eng/catalog.search#/metadata/ba1d5529-ae39-420b-a8e6-5331dd29e531&quot;&gt;link to dataset metadata&lt;/a&gt;&lt;/font&gt;&lt;/div&gt;&lt;/div&gt;" id="mnoR7cyunpkpfNXAe4Dq-30">
          <mxCell style="shape=mxgraph.bpmn.data;labelPosition=center;verticalLabelPosition=bottom;align=center;verticalAlign=top;size=13;html=1;" vertex="1" parent="k6mhYjpQpfvVJ8LvTSOb-6">
            <mxGeometry x="550" y="270" width="30" height="37" as="geometry" />
          </mxCell>
        </UserObject>
        <mxCell id="mnoR7cyunpkpfNXAe4Dq-33" style="edgeStyle=orthogonalEdgeStyle;rounded=0;orthogonalLoop=1;jettySize=auto;html=1;dashed=1;exitX=0;exitY=0;exitDx=30.000000000000004;exitDy=25;exitPerimeter=0;entryX=0.25;entryY=0;entryDx=0;entryDy=0;entryPerimeter=0;" edge="1" parent="k6mhYjpQpfvVJ8LvTSOb-6" source="mnoR7cyunpkpfNXAe4Dq-30" target="k6mhYjpQpfvVJ8LvTSOb-14">
          <mxGeometry relative="1" as="geometry">
            <mxPoint x="840" y="240" as="targetPoint" />
            <mxPoint x="710" y="189" as="sourcePoint" />
            <Array as="points">
              <mxPoint x="670" y="295" />
            </Array>
          </mxGeometry>
        </mxCell>
        <mxCell id="EDfzUC_PJEwEIxlfBZfZ-38" style="edgeStyle=orthogonalEdgeStyle;rounded=0;orthogonalLoop=1;jettySize=auto;html=1;exitX=0.5;exitY=1;exitDx=0;exitDy=0;exitPerimeter=0;" edge="1" parent="k6mhYjpQpfvVJ8LvTSOb-6" source="ciWnwU-5eP2VFK62MYWq-32">
          <mxGeometry relative="1" as="geometry">
            <mxPoint x="154" y="60" as="sourcePoint" />
            <mxPoint x="702" y="380" as="targetPoint" />
            <Array as="points">
              <mxPoint x="600" y="210" />
              <mxPoint x="702" y="210" />
            </Array>
          </mxGeometry>
        </mxCell>
        <mxCell id="2BGtZ8wRhE-_zH-Sex3D-1" value="" style="edgeStyle=orthogonalEdgeStyle;rounded=0;orthogonalLoop=1;jettySize=auto;html=1;exitX=1;exitY=0.5;exitDx=0;exitDy=0;exitPerimeter=0;entryX=0.5;entryY=0;entryDx=0;entryDy=0;entryPerimeter=0;" edge="1" parent="k6mhYjpQpfvVJ8LvTSOb-6" source="k6mhYjpQpfvVJ8LvTSOb-8" target="2BGtZ8wRhE-_zH-Sex3D-0">
          <mxGeometry relative="1" as="geometry">
            <mxPoint x="610" y="-4285" as="targetPoint" />
            <Array as="points">
              <mxPoint x="245" y="50" />
            </Array>
            <mxPoint x="254" y="-4410" as="sourcePoint" />
          </mxGeometry>
        </mxCell>
        <mxCell id="2BGtZ8wRhE-_zH-Sex3D-0" value="" style="points=[[0.25,0.25,0],[0.5,0,0],[0.75,0.25,0],[1,0.5,0],[0.75,0.75,0],[0.5,1,0],[0.25,0.75,0],[0,0.5,0]];shape=mxgraph.bpmn.gateway2;html=1;verticalLabelPosition=bottom;labelBackgroundColor=#ffffff;verticalAlign=top;align=center;perimeter=rhombusPerimeter;outlineConnect=0;outline=none;symbol=none;gwType=parallel;" vertex="1" parent="k6mhYjpQpfvVJ8LvTSOb-6">
          <mxGeometry x="220" y="150" width="50" height="50" as="geometry" />
        </mxCell>
        <UserObject label="&lt;div style=&quot;&quot;&gt;&lt;div style=&quot;&quot;&gt;&lt;font face=&quot;Arial&quot;&gt;&lt;span style=&quot;font-size: 8px;&quot;&gt;Tree crowns&lt;/span&gt;&lt;/font&gt;&lt;/div&gt;&lt;div style=&quot;font-size: 8px;&quot;&gt;&lt;font style=&quot;font-size: 8px;&quot; face=&quot;Arial&quot;&gt;&amp;nbsp;&lt;a href=&quot;https://usage.geocat.live/catalogue/srv/eng/catalog.search#/metadata/6339aef0-d289-4d4c-b988-8ba5bdd9a830&quot;&gt;link to dataset metadata&lt;/a&gt;&lt;/font&gt;&lt;/div&gt;&lt;/div&gt;" id="NzYV1UiMr_nc8l4MVwgO-0">
          <mxCell style="shape=mxgraph.bpmn.data;labelPosition=center;verticalLabelPosition=bottom;align=center;verticalAlign=top;size=10;html=1;" vertex="1" parent="k6mhYjpQpfvVJ8LvTSOb-6">
            <mxGeometry x="984" y="220" width="30" height="37" as="geometry" />
          </mxCell>
        </UserObject>
        <mxCell id="NzYV1UiMr_nc8l4MVwgO-1" style="edgeStyle=orthogonalEdgeStyle;rounded=0;orthogonalLoop=1;jettySize=auto;html=1;dashed=1;entryX=0.5;entryY=0;entryDx=0;entryDy=0;entryPerimeter=0;exitX=1;exitY=0.75;exitDx=0;exitDy=0;exitPerimeter=0;" edge="1" parent="k6mhYjpQpfvVJ8LvTSOb-6" source="ciWnwU-5eP2VFK62MYWq-32" target="NzYV1UiMr_nc8l4MVwgO-0">
          <mxGeometry relative="1" as="geometry">
            <mxPoint x="880" y="230" as="targetPoint" />
            <mxPoint x="710" y="189" as="sourcePoint" />
          </mxGeometry>
        </mxCell>
        <mxCell id="NzYV1UiMr_nc8l4MVwgO-3" style="edgeStyle=orthogonalEdgeStyle;rounded=0;orthogonalLoop=1;jettySize=auto;html=1;dashed=1;entryX=0.936;entryY=-0.058;entryDx=0;entryDy=0;entryPerimeter=0;" edge="1" parent="k6mhYjpQpfvVJ8LvTSOb-6" source="NzYV1UiMr_nc8l4MVwgO-0" target="k6mhYjpQpfvVJ8LvTSOb-14">
          <mxGeometry relative="1" as="geometry">
            <mxPoint x="680" y="390" as="targetPoint" />
            <mxPoint x="970" y="300" as="sourcePoint" />
            <Array as="points">
              <mxPoint x="1000" y="340" />
              <mxPoint x="807" y="340" />
            </Array>
          </mxGeometry>
        </mxCell>
        <mxCell id="k6mhYjpQpfvVJ8LvTSOb-54" value="&lt;div&gt;30% of tree canopy coverage per district&lt;br&gt;&lt;/div&gt;" style="swimlane;html=1;startSize=58;horizontal=0;whiteSpace=wrap;" vertex="1" parent="k6mhYjpQpfvVJ8LvTSOb-5">
          <mxGeometry x="20" y="600" width="1900" height="360" as="geometry" />
        </mxCell>
        <mxCell id="ciWnwU-5eP2VFK62MYWq-25" value="&lt;h6 style=&quot;line-height: 100%;&quot;&gt;&lt;span style=&quot;font-size: 8.04px; font-weight: 400;&quot;&gt;calculate the % of coverage of tree canopy in each district and check if the percentage is &amp;gt;30%. Assign the district characteristics to all buildings.&lt;/span&gt;&lt;br&gt;&lt;a href=&quot;https://usage.geocat.live/catalogue/srv/eng/catalog.search#/metadata/8309b176-983c-4460-8361-d55bd8829c9c&quot;&gt;30percent criterion&lt;/a&gt;&lt;/h6&gt;" style="points=[[0.25,0,0],[0.5,0,0],[0.75,0,0],[1,0.25,0],[1,0.5,0],[1,0.75,0],[0.75,1,0],[0.5,1,0],[0.25,1,0],[0,0.75,0],[0,0.5,0],[0,0.25,0]];shape=mxgraph.bpmn.task;whiteSpace=wrap;rectStyle=rounded;size=10;html=1;container=1;expand=0;collapsible=0;taskMarker=abstract;fillColor=#ff9b29;fontColor=#000000;strokeColor=#BD7000;" vertex="1" parent="k6mhYjpQpfvVJ8LvTSOb-54">
          <mxGeometry x="675" y="192" width="200" height="50" as="geometry" />
        </mxCell>
        <mxCell id="ciWnwU-5eP2VFK62MYWq-63" style="edgeStyle=orthogonalEdgeStyle;rounded=0;orthogonalLoop=1;jettySize=auto;html=1;dashed=1;" edge="1" parent="ciWnwU-5eP2VFK62MYWq-25" source="ciWnwU-5eP2VFK62MYWq-25">
          <mxGeometry relative="1" as="geometry">
            <mxPoint x="10.480000000000018" y="52" as="sourcePoint" />
            <mxPoint x="105.48000000000002" y="82" as="targetPoint" />
          </mxGeometry>
        </mxCell>
        <UserObject label="&lt;div style=&quot;&quot;&gt;&lt;div style=&quot;&quot;&gt;&lt;font face=&quot;Arial&quot;&gt;&lt;span style=&quot;font-size: 8px;&quot;&gt;districts&lt;/span&gt;&lt;/font&gt;&lt;/div&gt;&lt;div style=&quot;font-size: 8px;&quot;&gt;&lt;font face=&quot;Arial&quot; style=&quot;font-size: 8px;&quot;&gt;&amp;nbsp;&lt;a href=&quot;https://usage.geocat.live/catalogue/srv/ger/catalog.search#/metadata/4f18ca71-38e9-4d55-9064-bc5085a50608&quot;&gt;link to dataset metadata&lt;/a&gt;&lt;/font&gt;&lt;/div&gt;&lt;/div&gt;" id="ciWnwU-5eP2VFK62MYWq-26">
          <mxCell style="shape=mxgraph.bpmn.data;labelPosition=center;verticalLabelPosition=bottom;align=center;verticalAlign=top;size=10;html=1;" vertex="1" parent="k6mhYjpQpfvVJ8LvTSOb-54">
            <mxGeometry x="680" y="60" width="30" height="30" as="geometry" />
          </mxCell>
        </UserObject>
        <UserObject label="&lt;div style=&quot;line-height: 100%;&quot;&gt;&lt;div style=&quot;line-height: 100%;&quot;&gt;&lt;span style=&quot;font-family: Arial; font-size: 8px;&quot;&gt;Boolean buildings - 30percent criterion&lt;/span&gt;&lt;br&gt;&lt;/div&gt;&lt;div style=&quot;font-size: 8px; line-height: 100%;&quot;&gt;&lt;font style=&quot;font-size: 8px;&quot; face=&quot;Arial&quot;&gt;&amp;nbsp;&lt;a href=&quot;https://usage.geocat.live/catalogue/srv/eng/catalog.search#/metadata/59025e88-1ba8-4247-8f5d-2c8bb87ccc20&quot;&gt;link to dataset metadata&lt;/a&gt;&lt;/font&gt;&lt;/div&gt;&lt;/div&gt;" id="ciWnwU-5eP2VFK62MYWq-27">
          <mxCell style="shape=mxgraph.bpmn.data;labelPosition=center;verticalLabelPosition=bottom;align=center;verticalAlign=top;size=11;html=1;" vertex="1" parent="k6mhYjpQpfvVJ8LvTSOb-54">
            <mxGeometry x="770" y="280" width="30" height="32" as="geometry" />
          </mxCell>
        </UserObject>
        <mxCell id="EDfzUC_PJEwEIxlfBZfZ-8" style="edgeStyle=orthogonalEdgeStyle;rounded=0;orthogonalLoop=1;jettySize=auto;html=1;dashed=1;exitX=0.5;exitY=1;exitDx=0;exitDy=0;exitPerimeter=0;" edge="1" parent="k6mhYjpQpfvVJ8LvTSOb-54">
          <mxGeometry relative="1" as="geometry">
            <mxPoint x="720" y="190" as="targetPoint" />
            <mxPoint x="694" y="97" as="sourcePoint" />
            <Array as="points">
              <mxPoint x="694" y="160" />
              <mxPoint x="720" y="160" />
              <mxPoint x="720" y="190" />
            </Array>
          </mxGeometry>
        </mxCell>
        <mxCell id="EDfzUC_PJEwEIxlfBZfZ-40" style="edgeStyle=orthogonalEdgeStyle;rounded=0;orthogonalLoop=1;jettySize=auto;html=1;exitX=1;exitY=0.5;exitDx=0;exitDy=0;exitPerimeter=0;entryX=0.5;entryY=0;entryDx=0;entryDy=0;entryPerimeter=0;" edge="1" parent="k6mhYjpQpfvVJ8LvTSOb-54" target="2BGtZ8wRhE-_zH-Sex3D-2">
          <mxGeometry relative="1" as="geometry">
            <mxPoint x="875" y="220" as="sourcePoint" />
            <mxPoint x="1196" y="420" as="targetPoint" />
            <Array as="points">
              <mxPoint x="1196" y="220" />
            </Array>
          </mxGeometry>
        </mxCell>
        <UserObject label="&lt;div style=&quot;&quot;&gt;&lt;div style=&quot;&quot;&gt;&lt;font face=&quot;Arial&quot;&gt;&lt;span style=&quot;font-size: 8px;&quot;&gt;single tree canopies&lt;/span&gt;&lt;/font&gt;&lt;/div&gt;&lt;div style=&quot;font-size: 8px;&quot;&gt;&lt;font face=&quot;Arial&quot; style=&quot;font-size: 8px;&quot;&gt;&amp;nbsp;&lt;a href=&quot;https://usage.geocat.live/catalogue/srv/eng/catalog.search#/metadata/6339aef0-d289-4d4c-b988-8ba5bdd9a830&quot;&gt;link to dataset metadata&lt;/a&gt;&lt;/font&gt;&lt;/div&gt;&lt;/div&gt;" id="dOxthLvODvYjjFTFsH-o-2">
          <mxCell style="shape=mxgraph.bpmn.data;labelPosition=center;verticalLabelPosition=bottom;align=center;verticalAlign=top;size=10;html=1;" vertex="1" parent="k6mhYjpQpfvVJ8LvTSOb-54">
            <mxGeometry x="820" y="60" width="30" height="37" as="geometry" />
          </mxCell>
        </UserObject>
        <mxCell id="dOxthLvODvYjjFTFsH-o-4" style="edgeStyle=orthogonalEdgeStyle;rounded=0;orthogonalLoop=1;jettySize=auto;html=1;dashed=1;exitX=0.5;exitY=1;exitDx=0;exitDy=0;exitPerimeter=0;entryX=0.801;entryY=-0.056;entryDx=0;entryDy=0;entryPerimeter=0;" edge="1" parent="k6mhYjpQpfvVJ8LvTSOb-54" source="dOxthLvODvYjjFTFsH-o-2" target="ciWnwU-5eP2VFK62MYWq-25">
          <mxGeometry relative="1" as="geometry">
            <mxPoint x="1130" y="70" as="targetPoint" />
            <mxPoint x="885" y="-333" as="sourcePoint" />
            <Array as="points">
              <mxPoint x="835" y="67" />
            </Array>
          </mxGeometry>
        </mxCell>
        <mxCell id="k6mhYjpQpfvVJ8LvTSOb-69" value="&lt;div&gt;300m to the next green or blue infrastructure&lt;br&gt;&lt;/div&gt;" style="swimlane;html=1;startSize=58;horizontal=0;whiteSpace=wrap;" vertex="1" parent="k6mhYjpQpfvVJ8LvTSOb-5">
          <mxGeometry x="20" y="960" width="1900" height="390" as="geometry" />
        </mxCell>
        <UserObject label="&lt;div style=&quot;line-height: 100%;&quot;&gt;&lt;div style=&quot;line-height: 100%;&quot;&gt;&lt;span style=&quot;background-color: initial; font-size: 8px;&quot;&gt;&lt;font face=&quot;Arial&quot;&gt;Boolean buildings - 300m criterion&lt;/font&gt;&lt;/span&gt;&lt;/div&gt;&lt;div style=&quot;font-size: 8px; line-height: 100%;&quot;&gt;&lt;font face=&quot;Arial&quot; style=&quot;font-size: 8px;&quot;&gt;&amp;nbsp;&lt;a href=&quot;https://usage.geocat.live/catalogue/srv/eng/catalog.search#/metadata/a23ca88a-9fb1-4ea0-9313-8de2e01a61b9&quot;&gt;link to dataset metadata&lt;/a&gt;&lt;/font&gt;&lt;/div&gt;&lt;/div&gt;" id="ciWnwU-5eP2VFK62MYWq-67">
          <mxCell style="shape=mxgraph.bpmn.data;labelPosition=center;verticalLabelPosition=bottom;align=center;verticalAlign=top;size=14;html=1;" vertex="1" parent="k6mhYjpQpfvVJ8LvTSOb-69">
            <mxGeometry x="420" y="270" width="26.5" height="38" as="geometry" />
          </mxCell>
        </UserObject>
        <mxCell id="ciWnwU-5eP2VFK62MYWq-68" style="edgeStyle=orthogonalEdgeStyle;rounded=0;orthogonalLoop=1;jettySize=auto;html=1;entryX=0;entryY=0;entryDx=7.5;entryDy=0;entryPerimeter=0;dashed=1;exitX=0.537;exitY=1.022;exitDx=0;exitDy=0;exitPerimeter=0;" edge="1" parent="k6mhYjpQpfvVJ8LvTSOb-69" source="ciWnwU-5eP2VFK62MYWq-71" target="ciWnwU-5eP2VFK62MYWq-67">
          <mxGeometry relative="1" as="geometry" />
        </mxCell>
        <UserObject label="&lt;div style=&quot;&quot;&gt;&lt;div style=&quot;&quot;&gt;&lt;font face=&quot;Arial&quot;&gt;&lt;span style=&quot;font-size: 8px;&quot;&gt;road&amp;nbsp;&lt;/span&gt;&lt;/font&gt;&lt;span style=&quot;font-size: 8px; font-family: Arial; background-color: initial;&quot;&gt;network&lt;/span&gt;&lt;/div&gt;&lt;div style=&quot;font-size: 8px;&quot;&gt;&lt;font face=&quot;Arial&quot; style=&quot;font-size: 8px;&quot;&gt;&amp;nbsp;&lt;a href=&quot;https://usage.geocat.live/catalogue/srv/ger/catalog.search#/metadata/55c04ef2-2d4b-4b74-a4ec-08b03e2fd678&quot;&gt;link to dataset metadata&lt;/a&gt;&lt;/font&gt;&lt;/div&gt;&lt;/div&gt;" id="ciWnwU-5eP2VFK62MYWq-69">
          <mxCell style="shape=mxgraph.bpmn.data;labelPosition=center;verticalLabelPosition=bottom;align=center;verticalAlign=top;size=10;html=1;" vertex="1" parent="k6mhYjpQpfvVJ8LvTSOb-69">
            <mxGeometry x="390" y="17" width="30" height="37" as="geometry" />
          </mxCell>
        </UserObject>
        <UserObject label="&lt;div style=&quot;&quot;&gt;&lt;div style=&quot;&quot;&gt;&lt;font face=&quot;Arial&quot;&gt;&lt;span style=&quot;font-size: 8px;&quot;&gt;Land use map for &lt;br&gt;parks and water (public accessible areas)&lt;/span&gt;&lt;/font&gt;&lt;/div&gt;&lt;div style=&quot;font-size: 8px;&quot;&gt;&lt;font face=&quot;Arial&quot; style=&quot;font-size: 8px;&quot;&gt;&amp;nbsp;&lt;a href=&quot;https://usage.geocat.live/catalogue/srv/eng/catalog.search#/metadata/7c840141-dce0-4b54-9bd7-7f0127b8745c&quot;&gt;link to dataset metadata&lt;/a&gt;&lt;/font&gt;&lt;/div&gt;&lt;/div&gt;" id="ciWnwU-5eP2VFK62MYWq-70">
          <mxCell style="shape=mxgraph.bpmn.data;labelPosition=center;verticalLabelPosition=bottom;align=center;verticalAlign=top;size=10;html=1;" vertex="1" parent="k6mhYjpQpfvVJ8LvTSOb-69">
            <mxGeometry x="720" y="17" width="30" height="37" as="geometry" />
          </mxCell>
        </UserObject>
        <mxCell id="ciWnwU-5eP2VFK62MYWq-71" value="&lt;h6 style=&quot;line-height: 100%;&quot;&gt;&lt;font face=&quot;Arial&quot;&gt;&lt;span style=&quot;font-size: 8px;&quot;&gt;&lt;span style=&quot;font-weight: 400;&quot;&gt;calculate the distance between the address point and&amp;nbsp; all green/blue infrastructure. Is the distance &amp;lt;300m to any of the green/blue infrastructures?&lt;br&gt;&lt;/span&gt;&lt;a href=&quot;https://usage.geocat.live/catalogue/srv/eng/catalog.search#/metadata/0977038e-28c9-4354-89fe-1a9b52c7da3a&quot;&gt;300m criterion&lt;/a&gt;&lt;/span&gt;&lt;/font&gt;&lt;/h6&gt;" style="points=[[0.25,0,0],[0.5,0,0],[0.75,0,0],[1,0.25,0],[1,0.5,0],[1,0.75,0],[0.75,1,0],[0.5,1,0],[0.25,1,0],[0,0.75,0],[0,0.5,0],[0,0.25,0]];shape=mxgraph.bpmn.task;whiteSpace=wrap;rectStyle=rounded;size=10;html=1;container=1;expand=0;collapsible=0;taskMarker=abstract;fillColor=#ff9b29;fontColor=#000000;strokeColor=#BD7000;" vertex="1" parent="k6mhYjpQpfvVJ8LvTSOb-69">
          <mxGeometry x="320" y="140" width="200" height="50" as="geometry" />
        </mxCell>
        <mxCell id="ciWnwU-5eP2VFK62MYWq-73" style="edgeStyle=orthogonalEdgeStyle;rounded=0;orthogonalLoop=1;jettySize=auto;html=1;dashed=1;exitX=0.5;exitY=1;exitDx=0;exitDy=0;exitPerimeter=0;entryX=0.5;entryY=0;entryDx=0;entryDy=0;" edge="1" parent="k6mhYjpQpfvVJ8LvTSOb-69" source="ciWnwU-5eP2VFK62MYWq-70" target="2BGtZ8wRhE-_zH-Sex3D-16">
          <mxGeometry relative="1" as="geometry">
            <mxPoint x="540" y="150" as="targetPoint" />
            <mxPoint x="570" y="87" as="sourcePoint" />
            <Array as="points" />
          </mxGeometry>
        </mxCell>
        <mxCell id="EDfzUC_PJEwEIxlfBZfZ-9" style="edgeStyle=orthogonalEdgeStyle;rounded=0;orthogonalLoop=1;jettySize=auto;html=1;dashed=1;exitX=0.5;exitY=1;exitDx=0;exitDy=0;exitPerimeter=0;" edge="1" parent="k6mhYjpQpfvVJ8LvTSOb-69">
          <mxGeometry relative="1" as="geometry">
            <mxPoint x="404.63" y="140" as="targetPoint" />
            <mxPoint x="404.63" y="54" as="sourcePoint" />
            <Array as="points">
              <mxPoint x="404.63" y="140" />
            </Array>
          </mxGeometry>
        </mxCell>
        <UserObject label="&lt;div style=&quot;&quot;&gt;&lt;div style=&quot;&quot;&gt;&lt;font face=&quot;Arial&quot;&gt;&lt;span style=&quot;font-size: 8px;&quot;&gt;lookup table for street categories&lt;/span&gt;&lt;/font&gt;&lt;/div&gt;&lt;div style=&quot;font-size: 8px;&quot;&gt;&lt;font face=&quot;Arial&quot; style=&quot;font-size: 8px;&quot;&gt;&amp;nbsp;&lt;a href=&quot;https://usage.geocat.live/catalogue/srv/eng/catalog.search#/metadata/d676fe14-c4e5-4d43-80ca-d88facff75bf&quot;&gt;link to dataset metadata&lt;/a&gt;&lt;/font&gt;&lt;/div&gt;&lt;/div&gt;" id="ohB3-MtpdD-KZxNO_08L-0">
          <mxCell style="shape=mxgraph.bpmn.data;labelPosition=center;verticalLabelPosition=bottom;align=center;verticalAlign=top;size=10;html=1;" vertex="1" parent="k6mhYjpQpfvVJ8LvTSOb-69">
            <mxGeometry x="530" y="20" width="30" height="37" as="geometry" />
          </mxCell>
        </UserObject>
        <mxCell id="ohB3-MtpdD-KZxNO_08L-1" style="edgeStyle=orthogonalEdgeStyle;rounded=0;orthogonalLoop=1;jettySize=auto;html=1;dashed=1;entryX=0.676;entryY=-0.056;entryDx=0;entryDy=0;entryPerimeter=0;" edge="1" parent="k6mhYjpQpfvVJ8LvTSOb-69" source="ohB3-MtpdD-KZxNO_08L-0" target="ciWnwU-5eP2VFK62MYWq-71">
          <mxGeometry relative="1" as="geometry">
            <mxPoint x="415" y="150" as="targetPoint" />
            <mxPoint x="415" y="64" as="sourcePoint" />
            <Array as="points">
              <mxPoint x="545" y="100" />
              <mxPoint x="455" y="100" />
            </Array>
          </mxGeometry>
        </mxCell>
        <mxCell id="2BGtZ8wRhE-_zH-Sex3D-2" value="" style="points=[[0.25,0.25,0],[0.5,0,0],[0.75,0.25,0],[1,0.5,0],[0.75,0.75,0],[0.5,1,0],[0.25,0.75,0],[0,0.5,0]];shape=mxgraph.bpmn.gateway2;html=1;verticalLabelPosition=bottom;labelBackgroundColor=#ffffff;verticalAlign=top;align=center;perimeter=rhombusPerimeter;outlineConnect=0;outline=none;symbol=none;gwType=parallel;" vertex="1" parent="k6mhYjpQpfvVJ8LvTSOb-69">
          <mxGeometry x="1170" y="140" width="50" height="50" as="geometry" />
        </mxCell>
        <mxCell id="EDfzUC_PJEwEIxlfBZfZ-41" style="edgeStyle=orthogonalEdgeStyle;rounded=0;orthogonalLoop=1;jettySize=auto;html=1;exitX=1;exitY=0.5;exitDx=0;exitDy=0;exitPerimeter=0;entryX=0;entryY=0.5;entryDx=0;entryDy=0;entryPerimeter=0;" edge="1" parent="k6mhYjpQpfvVJ8LvTSOb-69" source="ciWnwU-5eP2VFK62MYWq-71" target="2BGtZ8wRhE-_zH-Sex3D-2">
          <mxGeometry relative="1" as="geometry">
            <mxPoint x="885" y="-130" as="sourcePoint" />
            <mxPoint x="1100" y="220" as="targetPoint" />
            <Array as="points">
              <mxPoint x="1110" y="165" />
              <mxPoint x="1110" y="165" />
            </Array>
          </mxGeometry>
        </mxCell>
        <mxCell id="J6cz81nIuZAEn4z9d9Id-0" value="" style="edgeStyle=orthogonalEdgeStyle;rounded=0;orthogonalLoop=1;jettySize=auto;html=1;" edge="1" parent="k6mhYjpQpfvVJ8LvTSOb-69" source="2BGtZ8wRhE-_zH-Sex3D-16" target="ciWnwU-5eP2VFK62MYWq-70">
          <mxGeometry relative="1" as="geometry" />
        </mxCell>
        <mxCell id="2BGtZ8wRhE-_zH-Sex3D-16" value="&lt;div style=&quot;&quot;&gt;&lt;span style=&quot;font-family: Arial; font-size: 8px; text-wrap: nowrap;&quot;&gt;Categories to use:&lt;/span&gt;&lt;br style=&quot;font-family: Arial; font-size: 8px; text-wrap: nowrap;&quot;&gt;&lt;span style=&quot;font-family: Arial; font-size: 8px; text-wrap: nowrap;&quot;&gt;Parkanlage, Erholungsfläche,&lt;/span&gt;&lt;br style=&quot;font-family: Arial; font-size: 8px; text-wrap: nowrap;&quot;&gt;&lt;span style=&quot;font-family: Arial; font-size: 8px; text-wrap: nowrap;&quot;&gt;Sportanlagen,Waldfläche,&lt;/span&gt;&lt;br style=&quot;font-family: Arial; font-size: 8px; text-wrap: nowrap;&quot;&gt;&lt;span style=&quot;font-family: Arial; font-size: 8px; text-wrap: nowrap;&quot;&gt;fließende Gewässer, stehende Gewässer&amp;nbsp;&lt;/span&gt;&lt;/div&gt;" style="text;html=1;strokeColor=none;fillColor=#d5e8d4;align=center;verticalAlign=middle;rounded=0;whiteSpace=wrap;spacing=2;fontSize=6;labelBackgroundColor=none;" vertex="1" parent="k6mhYjpQpfvVJ8LvTSOb-69">
          <mxGeometry x="655" y="120" width="160" height="40" as="geometry" />
        </mxCell>
        <mxCell id="2BGtZ8wRhE-_zH-Sex3D-17" style="edgeStyle=orthogonalEdgeStyle;rounded=0;orthogonalLoop=1;jettySize=auto;html=1;dashed=1;exitX=0;exitY=0.5;exitDx=0;exitDy=0;entryX=1.008;entryY=0.354;entryDx=0;entryDy=0;entryPerimeter=0;" edge="1" parent="k6mhYjpQpfvVJ8LvTSOb-69" source="2BGtZ8wRhE-_zH-Sex3D-16" target="ciWnwU-5eP2VFK62MYWq-71">
          <mxGeometry relative="1" as="geometry">
            <mxPoint x="745" y="120" as="targetPoint" />
            <mxPoint x="745" y="64" as="sourcePoint" />
            <Array as="points">
              <mxPoint x="630" y="140" />
              <mxPoint x="630" y="158" />
            </Array>
          </mxGeometry>
        </mxCell>
        <mxCell id="k6mhYjpQpfvVJ8LvTSOb-76" value="&lt;div&gt;commbine all criteria&lt;/div&gt;" style="swimlane;html=1;startSize=58;horizontal=0;whiteSpace=wrap;" vertex="1" parent="k6mhYjpQpfvVJ8LvTSOb-5">
          <mxGeometry x="20" y="1350" width="1900" height="360" as="geometry" />
        </mxCell>
        <mxCell id="EDfzUC_PJEwEIxlfBZfZ-16" value="" style="edgeStyle=orthogonalEdgeStyle;rounded=0;orthogonalLoop=1;jettySize=auto;html=1;dashed=1;" edge="1" parent="k6mhYjpQpfvVJ8LvTSOb-76" source="AlwzMYm-ZSlX3xYWYxc7-0" target="EDfzUC_PJEwEIxlfBZfZ-11">
          <mxGeometry relative="1" as="geometry" />
        </mxCell>
        <mxCell id="AlwzMYm-ZSlX3xYWYxc7-0" value="&lt;div style=&quot;line-height: 70%;&quot;&gt;&lt;div&gt;&lt;span style=&quot;background-color: initial; font-size: 8px; font-family: Arial;&quot;&gt;merge all output criteria.&amp;nbsp;&lt;br&gt;If there are 3 trees visible from the building and&lt;br&gt;if there is a green/blue infrastructure reachable in 300m and&lt;br&gt;if the building is within a district that has enough tree canopy&lt;br&gt;--&amp;gt; the building should get a color depending on how many of the criterias are matched&lt;/span&gt;&lt;/div&gt;&lt;div style=&quot;font-size: 8px; text-wrap: nowrap; line-height: 8px;&quot;&gt;&lt;font face=&quot;Arial&quot;&gt;&amp;nbsp;&lt;a href=&quot;https://usage.geocat.live/catalogue/srv/eng/catalog.search#/metadata/d23a8c89-3bd3-431d-baeb-9386b909b53d&quot;&gt;3-30-300 Classification&lt;/a&gt;&lt;/font&gt;&lt;/div&gt;&lt;/div&gt;" style="points=[[0.25,0,0],[0.5,0,0],[0.75,0,0],[1,0.25,0],[1,0.5,0],[1,0.75,0],[0.75,1,0],[0.5,1,0],[0.25,1,0],[0,0.75,0],[0,0.5,0],[0,0.25,0]];shape=mxgraph.bpmn.task;whiteSpace=wrap;rectStyle=rounded;size=10;html=1;container=1;expand=0;collapsible=0;taskMarker=abstract;fillColor=#ff9b29;strokeColor=#d79b00;gradientColor=none;" vertex="1" parent="k6mhYjpQpfvVJ8LvTSOb-76">
          <mxGeometry x="1120" y="80" width="277" height="83.5" as="geometry" />
        </mxCell>
        <UserObject label="&lt;div style=&quot;line-height: 100%; font-size: 8px;&quot;&gt;&lt;div style=&quot;line-height: 100%;&quot;&gt;&lt;span style=&quot;background-color: rgb(255, 255, 255); color: rgb(51, 51, 51); font-family: Roboto, &amp;quot;Open Sans&amp;quot;, Helvetica, Arial, sans-serif; text-align: start; text-wrap: wrap;&quot;&gt;building with 3-30-300 classification&lt;/span&gt;&lt;/div&gt;&lt;div style=&quot;line-height: 100%;&quot;&gt;&lt;font face=&quot;Arial&quot; style=&quot;font-size: 8px;&quot;&gt;&amp;nbsp;&lt;a href=&quot;https://usage.geocat.live/catalogue/srv/eng/catalog.search#/metadata/c35095df-b407-4050-8c42-89e0c24e1104&quot;&gt;link to dataset metadata&lt;/a&gt;&lt;/font&gt;&lt;/div&gt;&lt;/div&gt;" id="EDfzUC_PJEwEIxlfBZfZ-11">
          <mxCell style="shape=mxgraph.bpmn.data;labelPosition=center;verticalLabelPosition=bottom;align=center;verticalAlign=top;size=14;html=1;" vertex="1" parent="k6mhYjpQpfvVJ8LvTSOb-76">
            <mxGeometry x="1260" y="210" width="26.5" height="38" as="geometry" />
          </mxCell>
        </UserObject>
        <mxCell id="EDfzUC_PJEwEIxlfBZfZ-42" style="edgeStyle=orthogonalEdgeStyle;rounded=0;orthogonalLoop=1;jettySize=auto;html=1;exitX=1;exitY=0.5;exitDx=0;exitDy=0;exitPerimeter=0;entryX=0.193;entryY=-0.05;entryDx=0;entryDy=0;entryPerimeter=0;" edge="1" parent="k6mhYjpQpfvVJ8LvTSOb-76" source="AlwzMYm-ZSlX3xYWYxc7-0">
          <mxGeometry relative="1" as="geometry">
            <mxPoint x="960" y="160" as="sourcePoint" />
            <mxPoint x="1613" y="441" as="targetPoint" />
            <Array as="points">
              <mxPoint x="1613" y="122" />
            </Array>
          </mxGeometry>
        </mxCell>
        <mxCell id="JcDHCsTCb_nu9wTao7F9-1" value="metadata link not working" style="rounded=0;whiteSpace=wrap;html=1;fillColor=#FF0000;" vertex="1" parent="k6mhYjpQpfvVJ8LvTSOb-76">
          <mxGeometry x="1230.25" y="290" width="86" height="40" as="geometry" />
        </mxCell>
        <mxCell id="ciWnwU-5eP2VFK62MYWq-76" style="edgeStyle=orthogonalEdgeStyle;rounded=0;orthogonalLoop=1;jettySize=auto;html=1;entryX=0.138;entryY=-0.031;entryDx=0;entryDy=0;entryPerimeter=0;dashed=1;exitX=0;exitY=0;exitDx=26.5;exitDy=26;exitPerimeter=0;" edge="1" parent="k6mhYjpQpfvVJ8LvTSOb-5" source="ciWnwU-5eP2VFK62MYWq-67" target="AlwzMYm-ZSlX3xYWYxc7-0">
          <mxGeometry relative="1" as="geometry">
            <mxPoint x="560" y="1134" as="sourcePoint" />
            <mxPoint x="471" y="1075" as="targetPoint" />
            <Array as="points">
              <mxPoint x="467" y="1260" />
              <mxPoint x="1178" y="1260" />
            </Array>
          </mxGeometry>
        </mxCell>
        <mxCell id="EDfzUC_PJEwEIxlfBZfZ-3" style="edgeStyle=orthogonalEdgeStyle;rounded=0;orthogonalLoop=1;jettySize=auto;html=1;dashed=1;exitX=0;exitY=0.5;exitDx=0;exitDy=0;exitPerimeter=0;" edge="1" parent="k6mhYjpQpfvVJ8LvTSOb-5" source="ciWnwU-5eP2VFK62MYWq-23">
          <mxGeometry relative="1" as="geometry">
            <mxPoint x="325" y="127" as="sourcePoint" />
            <mxPoint x="380" y="1097" as="targetPoint" />
            <Array as="points">
              <mxPoint x="380" y="401" />
            </Array>
          </mxGeometry>
        </mxCell>
        <mxCell id="ciWnwU-5eP2VFK62MYWq-74" style="edgeStyle=orthogonalEdgeStyle;rounded=0;orthogonalLoop=1;jettySize=auto;html=1;dashed=1;exitX=0;exitY=0;exitDx=26.5;exitDy=26;exitPerimeter=0;entryX=0.584;entryY=-0.039;entryDx=0;entryDy=0;entryPerimeter=0;" edge="1" parent="k6mhYjpQpfvVJ8LvTSOb-5" source="k6mhYjpQpfvVJ8LvTSOb-17" target="AlwzMYm-ZSlX3xYWYxc7-0">
          <mxGeometry relative="1" as="geometry">
            <mxPoint x="1302" y="1274" as="targetPoint" />
            <mxPoint x="1100" y="770" as="sourcePoint" />
            <Array as="points">
              <mxPoint x="1302" y="534" />
            </Array>
          </mxGeometry>
        </mxCell>
        <mxCell id="ciWnwU-5eP2VFK62MYWq-75" style="edgeStyle=orthogonalEdgeStyle;rounded=0;orthogonalLoop=1;jettySize=auto;html=1;dashed=1;exitX=0;exitY=0;exitDx=30;exitDy=21.5;exitPerimeter=0;entryX=0.43;entryY=-0.016;entryDx=0;entryDy=0;entryPerimeter=0;" edge="1" parent="k6mhYjpQpfvVJ8LvTSOb-5" source="ciWnwU-5eP2VFK62MYWq-27" target="AlwzMYm-ZSlX3xYWYxc7-0">
          <mxGeometry relative="1" as="geometry">
            <mxPoint x="1260" y="1290" as="targetPoint" />
            <mxPoint x="460" y="464" as="sourcePoint" />
            <Array as="points">
              <mxPoint x="1259" y="902" />
            </Array>
          </mxGeometry>
        </mxCell>
        <mxCell id="EDfzUC_PJEwEIxlfBZfZ-20" value="" style="edgeStyle=orthogonalEdgeStyle;rounded=0;orthogonalLoop=1;jettySize=auto;html=1;dashed=1;entryX=0.5;entryY=0;entryDx=0;entryDy=0;entryPerimeter=0;exitX=0;exitY=0;exitDx=26.5;exitDy=26;exitPerimeter=0;" edge="1" parent="k6mhYjpQpfvVJ8LvTSOb-5" source="EDfzUC_PJEwEIxlfBZfZ-11" target="EDfzUC_PJEwEIxlfBZfZ-18">
          <mxGeometry relative="1" as="geometry">
            <mxPoint x="1310" y="1449" as="sourcePoint" />
            <mxPoint x="1303" y="1440" as="targetPoint" />
            <Array as="points">
              <mxPoint x="1556" y="1566" />
            </Array>
          </mxGeometry>
        </mxCell>
        <mxCell id="EDfzUC_PJEwEIxlfBZfZ-36" style="edgeStyle=orthogonalEdgeStyle;rounded=0;orthogonalLoop=1;jettySize=auto;html=1;dashed=1;entryX=0;entryY=0.5;entryDx=0;entryDy=0;entryPerimeter=0;exitX=0.5;exitY=1;exitDx=0;exitDy=0;exitPerimeter=0;" edge="1" parent="k6mhYjpQpfvVJ8LvTSOb-5" source="ciWnwU-5eP2VFK62MYWq-23" target="ciWnwU-5eP2VFK62MYWq-25">
          <mxGeometry relative="1" as="geometry">
            <mxPoint x="510" y="380" as="sourcePoint" />
            <mxPoint x="665" y="390" as="targetPoint" />
            <Array as="points">
              <mxPoint x="415" y="817" />
            </Array>
          </mxGeometry>
        </mxCell>
        <mxCell id="EDfzUC_PJEwEIxlfBZfZ-39" style="edgeStyle=orthogonalEdgeStyle;rounded=0;orthogonalLoop=1;jettySize=auto;html=1;exitX=1;exitY=0.5;exitDx=0;exitDy=0;exitPerimeter=0;entryX=1;entryY=0.5;entryDx=0;entryDy=0;entryPerimeter=0;" edge="1" parent="k6mhYjpQpfvVJ8LvTSOb-5" source="k6mhYjpQpfvVJ8LvTSOb-14" target="2BGtZ8wRhE-_zH-Sex3D-2">
          <mxGeometry relative="1" as="geometry">
            <mxPoint x="920" y="390" as="sourcePoint" />
            <mxPoint x="1330" y="1400" as="targetPoint" />
            <Array as="points">
              <mxPoint x="1335" y="407" />
              <mxPoint x="1335" y="1125" />
            </Array>
          </mxGeometry>
        </mxCell>
        <mxCell id="EDfzUC_PJEwEIxlfBZfZ-43" style="edgeStyle=orthogonalEdgeStyle;rounded=0;orthogonalLoop=1;jettySize=auto;html=1;entryX=0;entryY=0.75;entryDx=0;entryDy=0;entryPerimeter=0;fontStyle=1;exitX=0.5;exitY=1;exitDx=0;exitDy=0;exitPerimeter=0;" edge="1" parent="k6mhYjpQpfvVJ8LvTSOb-5" source="2BGtZ8wRhE-_zH-Sex3D-0" target="ciWnwU-5eP2VFK62MYWq-25">
          <mxGeometry relative="1" as="geometry">
            <mxPoint x="170" y="70" as="sourcePoint" />
            <mxPoint x="530" y="185" as="targetPoint" />
            <Array as="points">
              <mxPoint x="265" y="830" />
            </Array>
          </mxGeometry>
        </mxCell>
        <mxCell id="EDfzUC_PJEwEIxlfBZfZ-44" style="edgeStyle=orthogonalEdgeStyle;rounded=0;orthogonalLoop=1;jettySize=auto;html=1;exitX=0;exitY=0.5;exitDx=0;exitDy=0;exitPerimeter=0;entryX=0;entryY=0.5;entryDx=0;entryDy=0;entryPerimeter=0;" edge="1" parent="k6mhYjpQpfvVJ8LvTSOb-5" source="2BGtZ8wRhE-_zH-Sex3D-0" target="ciWnwU-5eP2VFK62MYWq-71">
          <mxGeometry relative="1" as="geometry">
            <mxPoint x="174" y="60" as="sourcePoint" />
            <mxPoint x="705" y="840" as="targetPoint" />
            <Array as="points">
              <mxPoint x="147" y="175" />
              <mxPoint x="147" y="1125" />
            </Array>
          </mxGeometry>
        </mxCell>
        <mxCell id="dOxthLvODvYjjFTFsH-o-3" style="edgeStyle=orthogonalEdgeStyle;rounded=0;orthogonalLoop=1;jettySize=auto;html=1;dashed=1;entryX=0.5;entryY=0;entryDx=0;entryDy=0;entryPerimeter=0;exitX=1;exitY=0.5;exitDx=0;exitDy=0;exitPerimeter=0;" edge="1" parent="k6mhYjpQpfvVJ8LvTSOb-5" source="ciWnwU-5eP2VFK62MYWq-32" target="dOxthLvODvYjjFTFsH-o-2">
          <mxGeometry relative="1" as="geometry">
            <mxPoint x="900" y="230" as="targetPoint" />
            <mxPoint x="730" y="189" as="sourcePoint" />
            <Array as="points">
              <mxPoint x="720" y="170" />
              <mxPoint x="1075" y="170" />
              <mxPoint x="1075" y="620" />
              <mxPoint x="855" y="620" />
            </Array>
          </mxGeometry>
        </mxCell>
        <mxCell id="2BGtZ8wRhE-_zH-Sex3D-4" style="edgeStyle=orthogonalEdgeStyle;rounded=0;orthogonalLoop=1;jettySize=auto;html=1;entryX=0.274;entryY=-0.017;entryDx=0;entryDy=0;entryPerimeter=0;exitX=0.5;exitY=1;exitDx=0;exitDy=0;exitPerimeter=0;" edge="1" parent="k6mhYjpQpfvVJ8LvTSOb-5" source="2BGtZ8wRhE-_zH-Sex3D-2" target="AlwzMYm-ZSlX3xYWYxc7-0">
          <mxGeometry relative="1" as="geometry">
            <mxPoint x="457" y="1161" as="sourcePoint" />
            <mxPoint x="458" y="1240" as="targetPoint" />
          </mxGeometry>
        </mxCell>
        <mxCell id="EDfzUC_PJEwEIxlfBZfZ-30" value="&lt;div&gt;presentation of output&lt;/div&gt;" style="swimlane;html=1;startSize=58;horizontal=0;whiteSpace=wrap;" vertex="1" parent="k6mhYjpQpfvVJ8LvTSOb-5">
          <mxGeometry x="20" y="1710" width="1900" height="340" as="geometry" />
        </mxCell>
        <mxCell id="EDfzUC_PJEwEIxlfBZfZ-17" value="" style="edgeStyle=orthogonalEdgeStyle;rounded=0;orthogonalLoop=1;jettySize=auto;html=1;dashed=1;exitX=0.5;exitY=1;exitDx=0;exitDy=0;exitPerimeter=0;" edge="1" parent="EDfzUC_PJEwEIxlfBZfZ-30" source="EDfzUC_PJEwEIxlfBZfZ-18" target="EDfzUC_PJEwEIxlfBZfZ-19">
          <mxGeometry relative="1" as="geometry" />
        </mxCell>
        <mxCell id="EDfzUC_PJEwEIxlfBZfZ-26" value="" style="edgeStyle=orthogonalEdgeStyle;rounded=0;orthogonalLoop=1;jettySize=auto;html=1;" edge="1" parent="EDfzUC_PJEwEIxlfBZfZ-30" source="EDfzUC_PJEwEIxlfBZfZ-18">
          <mxGeometry relative="1" as="geometry">
            <mxPoint x="1787.0000833335653" y="121.80000000000018" as="targetPoint" />
          </mxGeometry>
        </mxCell>
        <mxCell id="EDfzUC_PJEwEIxlfBZfZ-18" value="&lt;div style=&quot;line-height: 70%;&quot;&gt;&lt;div&gt;&lt;span style=&quot;background-color: initial; font-size: 8px; font-family: Arial;&quot;&gt;create a hexagon map for better interpretation of regions&lt;/span&gt;&lt;br&gt;&lt;/div&gt;&lt;span style=&quot;font-size: 8px; text-wrap: nowrap; font-family: Arial;&quot;&gt;&amp;nbsp;&lt;/span&gt;&lt;a href=&quot;https://usage.geocat.live/catalogue/srv/eng/catalog.search#/metadata/ee740f9b-bf7d-4570-a69f-95a509c2c845&quot; style=&quot;font-size: 8px; text-wrap: nowrap; font-family: Arial;&quot;&gt;3-30-300_Hexagons&lt;/a&gt;&lt;/div&gt;" style="points=[[0.25,0,0],[0.5,0,0],[0.75,0,0],[1,0.25,0],[1,0.5,0],[1,0.75,0],[0.75,1,0],[0.5,1,0],[0.25,1,0],[0,0.75,0],[0,0.5,0],[0,0.25,0]];shape=mxgraph.bpmn.task;whiteSpace=wrap;rectStyle=rounded;size=10;html=1;container=1;expand=0;collapsible=0;taskMarker=abstract;fillColor=#ff9b29;strokeColor=#d79b00;gradientColor=none;" vertex="1" parent="EDfzUC_PJEwEIxlfBZfZ-30">
          <mxGeometry x="1397" y="80" width="277" height="83.5" as="geometry" />
        </mxCell>
        <UserObject label="&lt;div style=&quot;line-height: 100%; font-size: 8px;&quot;&gt;&lt;div style=&quot;line-height: 100%;&quot;&gt;&lt;span style=&quot;text-wrap: wrap;&quot;&gt;hexagon result 3-30-300&amp;nbsp;&lt;/span&gt;&lt;span style=&quot;text-wrap: wrap; background-color: initial;&quot;&gt;classification&lt;/span&gt;&lt;/div&gt;&lt;div style=&quot;line-height: 100%;&quot;&gt;&lt;span style=&quot;font-family: Arial;&quot;&gt;&amp;nbsp;&lt;/span&gt;&lt;a style=&quot;font-family: Arial;&quot; href=&quot;https://usage.geocat.live/catalogue/srv/eng/catalog.search#/metadata/c9c64337-8bae-484b-a959-cda5557b7c39&quot;&gt;link to dataset metadata&lt;/a&gt;&lt;span style=&quot;background-color: initial; text-wrap: wrap;&quot;&gt;&lt;br&gt;&lt;/span&gt;&lt;/div&gt;&lt;/div&gt;" id="EDfzUC_PJEwEIxlfBZfZ-19">
          <mxCell style="shape=mxgraph.bpmn.data;labelPosition=center;verticalLabelPosition=bottom;align=center;verticalAlign=top;size=14;html=1;fillColor=#B48FC9;strokeColor=#9673a6;" vertex="1" parent="EDfzUC_PJEwEIxlfBZfZ-30">
            <mxGeometry x="1522.25" y="210" width="26.5" height="38" as="geometry" />
          </mxCell>
        </UserObject>
        <mxCell id="k6mhYjpQpfvVJ8LvTSOb-79" value="" style="points=[[0.145,0.145,0],[0.5,0,0],[0.855,0.145,0],[1,0.5,0],[0.855,0.855,0],[0.5,1,0],[0.145,0.855,0],[0,0.5,0]];shape=mxgraph.bpmn.event;html=1;verticalLabelPosition=bottom;labelBackgroundColor=#ffffff;verticalAlign=top;align=center;perimeter=ellipsePerimeter;outlineConnect=0;aspect=fixed;outline=end;symbol=terminate2;" vertex="1" parent="EDfzUC_PJEwEIxlfBZfZ-30">
          <mxGeometry x="1790" y="106.75" width="30" height="30" as="geometry" />
        </mxCell>
      </root>
    </mxGraphModel>
  </diagram>
</mxfile>
